<svg xmlns="http://www.w3.org/2000/svg" id="Layer_2" viewBox="0 0 1980.24 469.56"><defs><style>.cls-1,.cls-2{fill:none;}.cls-3,.cls-4{fill:#fff;}.cls-5{fill:#fcbf09;}.cls-6,.cls-7{fill:#294075;}.cls-2{stroke-width:10px;}.cls-2,.cls-4{stroke:#fff;stroke-miterlimit:10;}.cls-4{stroke-width:7px;}.cls-7{fill-rule:evenodd;}</style></defs><g id="Capa_1"><g><path class="cls-6" d="M442.88,347.08h219.27c22.29-14.69,40.96-34.02,53.86-57.22,2.22-3.98,4.21-8.01,6.1-12.07H381.34c13.6,27.73,34.7,51.64,61.54,69.29Z"></path><path class="cls-5" d="M554.17,19.47c-102.11-.36-177.88,64.98-189.06,163-2.36,20.72-.98,40.88,3.57,59.95h365.78c25.26-105.93-46.1-221.93-180.29-222.95Z"></path><path class="cls-5" d="M677.62,267.98c49.11-88.84-5.48-207.59-124.03-208.5-78.25-.27-136.31,50.1-144.88,125.69-3.59,31.68,3.9,61.77,19.82,86.7h246.69c.79-1.31,1.67-2.56,2.41-3.89"></path><line class="cls-2" x1="552.96" y1="376.17" x2="552.96" y2="250.67"></line><line class="cls-4" x1="472.42" y1="272.31" x2="472.42" y2="348.57"></line><path class="cls-3" d="M568.06,0c-1.79,8.07-3.61,16.14-5.36,24.23-2.96,13.72-5.88,27.47-8.8,41.21-.11,.49-.16,.99-.29,1.87,18.35-7.33,36.5-14.57,55.14-22.01-20.95,66.94-41.77,133.48-62.59,200.03-.15-.04-.29-.07-.44-.1,4.76-47.51,9.51-95.02,14.32-143.04-18.38,7.58-36.42,15.02-54.88,22.62,.42-3.83,.77-7.32,1.17-10.78,3.14-27.45,6.37-54.9,9.43-82.36,.9-8.03,1.34-16.11,2.01-24.18,.04-.5,.16-.99,.24-1.49,16.69-2,33.37-4,50.06-5.99"></path><line class="cls-4" x1="646.86" y1="272.31" x2="646.86" y2="348.57"></line><g><path class="cls-7" d="M1531.08,461.49c.91-1.1,1.82-2.2,2.73-3.29,8.82,5.46,18.25,8.17,28.8,6.19,7.92-1.48,12.77-6.06,13.7-12.87,.88-6.43-2.44-11.9-9.74-15.01-4.23-1.8-8.82-2.82-13.18-4.36-3.76-1.33-7.68-2.51-11.1-4.45-11.8-6.68-11.6-22.23,.21-28.97,9.95-5.68,27.28-4.45,36.74,2.78-.73,1.1-1.48,2.24-2.35,3.56-8.33-5.24-17.21-6.61-26.61-4.56-6.8,1.49-10.72,5.72-11.4,11.8-.57,5.14,2.25,9.71,8.47,12.29,5.17,2.14,10.68,3.54,16.01,5.35,2.25,.76,4.5,1.58,6.61,2.61,9.21,4.49,12.49,10.58,11.23,20.57-.93,7.41-7.34,13.77-16.24,15.47-12.17,2.33-23.58,.43-33.89-6.4v-.72Z"></path><path class="cls-7" d="M1659.78,469.49c-22.92-.13-39.38-15.81-39.29-37.41,.09-21.02,17.32-37.11,39.61-36.98,22.6,.13,39.63,16.27,39.51,37.45-.12,21.47-16.95,37.07-39.83,36.94Zm.41-69.7c-19.57-.01-34.49,14.13-34.43,32.64,.07,18.84,14.61,32.64,34.36,32.62,19.39-.03,34.02-13.98,34.13-32.55,.1-18.19-15-32.7-34.06-32.71Z"></path><path class="cls-7" d="M1926.44,395.52c11.83,.67,23.54,.41,34.88,2.23,11.27,1.8,16.65,9.28,17.53,20.43,.79,9.95-4.4,18.32-13.97,22.54-.88,.39-1.76,.79-3.06,1.37,6.23,8.79,12.32,17.36,18.42,25.97-5.08,1.32-5.63,1.14-8.31-2.63-4.65-6.53-9.37-13.01-13.91-19.6-1.23-1.78-2.43-2.46-4.82-2.37-7.16,.25-14.34,.09-21.82,.09v24.88h-4.94v-72.9Zm5.02,44.07c8.48-.35,16.58-.21,24.54-1.14,10.51-1.22,16.84-8.23,17.45-18.06,.56-9.03-4.66-16.87-14.19-18.49-9.03-1.55-18.41-1.3-27.8-1.85v39.54Z"></path><path class="cls-7" d="M1887.71,468.43c-3.52,.75-5.72,.12-6.85-3.54-1.18-3.85-3.41-7.41-4.89-11.2-.75-1.91-1.83-2.45-3.89-2.43-12.51,.08-25.03,.09-37.54,0-2.13-.01-3.1,.68-3.83,2.54-1.48,3.79-3.56,7.38-4.88,11.21-1.2,3.46-3.25,4.44-7.03,3.25,4.79-10.6,9.59-21.18,14.34-31.77,5.69-12.7,11.31-25.43,17.1-38.08,.45-1,2.05-2.07,3.14-2.1,1.09-.03,2.82,.97,3.25,1.92,10.48,23.17,20.82,46.4,31.18,69.62,.04,.1-.04,.24-.1,.58Zm-14.96-21.92c-6.44-14.52-12.75-28.75-19.34-43.59-6.63,14.89-12.96,29.08-19.42,43.59h38.75Z"></path><path class="cls-7" d="M1745.74,396.28h4.73v67.97h43.18v4.15h-47.92v-72.12Z"></path></g><path class="cls-1" d="M1320.91,219.24c.02,9.42,.05,18.92,1.22,28.25,7.94,63.53,78.26,94.76,131.67,58.6,21.27-14.41,31.36-35.73,31.89-60.24,1.39-63.65,1.23-127.34,1.48-191.02,.01-2.84,.01-5.52,.31-7.91h-167.09c.38,3.36,.46,7.62,.47,13.08,.02,53.08-.05,106.15,.06,159.23Z"></path><path class="cls-1" d="M969.46,249.61c1.96,4.67,4.34,9.18,8.38,17.65,7.68-17.23,14.04-30.74,19.77-44.51,23.11-55.49,45.92-111.1,69.09-166.57,1.52-3.64,2.84-6.66,4.11-9.26h-186.45c1.07,2.04,2.13,4.35,3.22,6.95,27.42,65.19,54.56,130.49,81.88,195.74Z"></path><path class="cls-6" d="M1487.16,41.91c-.25,66.47-.09,132.97-1.48,199.42-.53,25.58-10.63,47.84-31.89,62.88-53.41,37.75-123.73,5.15-131.67-61.18-1.17-9.74-1.2-19.66-1.22-29.49-.11-55.41-.04-110.83-.06-166.24,0-5.7-.09-10.15-.47-13.66h-29.11c-.06,73.12-.91,145.53,.59,217.86,.48,23.38,9.8,45.8,27.52,62.25,41.21,38.26,88.84,40.7,137.52,21.82,46.02-17.84,61.02-58.5,61.31-106.43,.38-62.8-.19-125.6,.42-188.39,.03-2.74-.12-5.08-.47-7.11h-30.69c-.29,2.5-.29,5.29-.31,8.26Z"></path><path class="cls-6" d="M1066.7,43.31c-23.17,57.91-45.97,115.97-69.09,173.9-5.73,14.37-12.09,28.47-19.77,46.47-4.05-8.85-6.43-13.55-8.38-18.43-27.31-68.11-54.46-136.29-81.88-204.35-1.09-2.72-2.16-5.13-3.22-7.25h-32.94c41.53,103.47,83.08,207.02,126.47,315.1,43.27-108.06,84.68-211.48,126.16-315.1h-33.23c-1.27,2.71-2.59,5.87-4.11,9.67Z"></path><path class="cls-1" d="M1948.3,325.89c.19-56.59,.09-113.17,.09-169.77v-18.95c-1.84-.86-3.68-1.71-5.51-2.56-36.58,51.66-73.16,103.33-111.53,157.53-38.14-54.12-74.77-106.07-111.38-158.02-1.63,.6-3.25,1.2-4.88,1.8-.39,6.15-1.12,12.3-1.13,18.45-.09,57.18-.15,114.36,.03,171.53,.01,5.19,.03,9.8-1.63,13.24h237.47c-1.61-3.46-1.55-8.1-1.54-13.25Z"></path><path class="cls-6" d="M1713.99,325.9c-.18-57.18-.12-114.36-.03-171.53,.01-6.15,.74-12.3,1.13-18.45,1.62-.6,3.25-1.2,4.88-1.8,36.61,51.95,73.24,103.9,111.38,158.02,38.37-54.2,74.95-105.87,111.53-157.53,1.83,.85,3.67,1.71,5.51,2.56v18.95c0,56.6,.1,113.18-.09,169.77-.02,5.16-.07,9.79,1.54,13.25h28.37c1.75-3.37,2.05-7.96,2.03-13.48-.25-89.59-.1-179.2-.19-268.8,0-4.72-.95-9.43-1.95-18.64-50.21,70.61-97.52,137.14-146.74,206.37-49.56-69.89-97.31-137.22-145.06-204.55-1.13,.41-2.27,.81-3.41,1.22v11.62c0,90.78,.08,181.56-.09,272.34,0,5.42-.09,10.3,1.54,13.91h28.02c1.66-3.44,1.64-8.05,1.63-13.24Z"></path><path class="cls-6" d="M234.15,32.93c-14.53,.02-16.58,12.77-16.51,24.53,.37,63.64,.23,127.28,.09,190.92-.02,6.37-1.14,12.74-2.25,24.38C142.23,190.68,72.95,113.05,1.46,32.93,.56,39.76,0,42.05,0,44.34c-.01,93.7,.27,301.22,1.7,304.23l29.19,.18c1.34-3.26,.72-151.09,.8-214.72,.01-6.03,.73-12.06,1.47-23.61,72.95,81.64,142.13,159.06,214.72,240.31,.71-10.08,1.31-14.63,1.32-19.16,.05-91.34-.09-182.68,.2-274.01,.03-11.61-.6-24.64-15.26-24.62Z"></path><polyline class="cls-6" points="217.68 32.93 219.62 32.95 249.41 32.95 249.41 65.07 217.68 65.07"></polyline><path class="cls-3" d="M662.15,347.08h-219.27c18.02,11.85,38.62,20.89,61.3,26.36,55.92,13.5,114,2.62,157.97-26.36Z"></path><path class="cls-3" d="M641.11,257.59H372.99c2.35,6.93,5.14,13.67,8.34,20.2h340.78c3.08-6.65,5.79-13.38,8.04-20.2h-89.04Z"></path><path class="cls-3" d="M463.25,257.59h266.91c1.66-5.03,3.09-10.09,4.3-15.17H368.68c1.23,5.14,2.63,10.21,4.32,15.17h90.25Z"></path></g></g></svg>